<svg width="40" height="40" viewBox="0 0 40 40" fill="none" xmlns="http://www.w3.org/2000/svg">
<path fill-rule="evenodd" clip-rule="evenodd" d="M31.9767 3.48333C32.845 3.89999 33.87 4.50333 34.685 5.31833C35.5017 6.13499 36.105 7.15833 36.5183 8.02666C37.04 9.11666 36.7017 10.3733 35.85 11.2267L23.8267 23.2483C23.31 23.765 22.68 24.15 21.985 24.3733L14.9483 26.6283C14.7295 26.6985 14.4955 26.707 14.2721 26.6529C14.0487 26.5988 13.8446 26.4841 13.6822 26.3215C13.5197 26.1589 13.4053 25.9546 13.3514 25.7312C13.2975 25.5077 13.3062 25.2738 13.3767 25.055L15.6317 18.02C15.8542 17.3255 16.2394 16.6941 16.755 16.1783L28.7783 4.15499C29.6317 3.30166 30.8883 2.96499 31.9783 3.48499L31.9767 3.48333ZM32.3283 7.67666C31.9166 7.28774 31.452 6.95894 30.9483 6.69999L19.2917 18.3567C19.1732 18.4749 19.0732 18.6103 18.995 18.7583L16.5 23.5033L21.2433 21.01C21.3933 20.9317 21.5283 20.8317 21.6467 20.7133L33.3033 9.05666C33.0443 8.55299 32.7172 8.0884 32.3283 7.67666ZM8.33167 9.16666C8.33131 8.95377 8.41244 8.74882 8.55841 8.59386C8.70439 8.43889 8.90413 8.34567 9.11667 8.33333L18.3333 8.34166C18.7754 8.34166 19.1993 8.16607 19.5118 7.8535C19.8244 7.54094 20 7.11702 20 6.67499C20 6.23297 19.8244 5.80904 19.5118 5.49648C19.1993 5.18392 18.7754 5.00833 18.3333 5.00833L9.16667 4.99999C8.0616 4.99999 7.00179 5.43898 6.22039 6.22038C5.43899 7.00178 5 8.06159 5 9.16666V30.1283C5 31.395 5.13667 32.1033 5.53167 32.84C5.905 33.5383 6.46167 34.0967 7.16 34.47C7.89667 34.8633 8.60333 35 9.87167 35H30.1283C31.395 35 32.1033 34.8633 32.84 34.47C33.54 34.0967 34.0967 33.5383 34.47 32.84C34.8633 32.1033 35 31.3967 35 30.1283V21.6667C35 21.2246 34.8244 20.8007 34.5118 20.4881C34.1993 20.1756 33.7754 20 33.3333 20C32.8913 20 32.4674 20.1756 32.1548 20.4881C31.8423 20.8007 31.6667 21.2246 31.6667 21.6667V30.1283C31.6667 30.8933 31.6317 31.08 31.53 31.2683C31.4722 31.3807 31.3807 31.4721 31.2683 31.53C31.08 31.63 30.8933 31.6667 30.1283 31.6667H9.87167C9.10667 31.6667 8.92167 31.63 8.73167 31.53C8.61925 31.4722 8.52775 31.3807 8.47 31.2683C8.37 31.08 8.33333 30.8933 8.33333 30.1283L8.33167 9.16666Z" fill="black"/>
</svg>
