<svg width="40" height="40" viewBox="0 0 40 40" fill="none" xmlns="http://www.w3.org/2000/svg">
<path d="M23.7732 26.5625L20.993 23.8057C19.6515 22.4752 18.9807 21.81 18.211 21.5669C17.534 21.353 16.8063 21.3609 16.1341 21.5894C15.3698 21.8492 14.7136 22.5287 13.4011 23.8877L6.74015 30.4669M23.7732 26.5625L24.3422 25.9984C25.6853 24.6664 26.3568 24.0004 27.1275 23.7572C27.8052 23.5434 28.5333 23.5519 29.206 23.7812C29.9707 24.0419 30.6268 24.7232 31.939 26.0857L33.3333 27.489M23.7732 26.5625L30.4583 33.2609M6.74015 30.4669C6.79187 30.8869 6.87994 31.2189 7.02999 31.5134C7.34955 32.1405 7.85949 32.6505 8.48671 32.97C9.19974 33.3334 10.1332 33.3334 12 33.3334H28C29.0905 33.3334 29.8627 33.3334 30.4583 33.2609M6.74015 30.4669C6.66667 29.8702 6.66667 29.0959 6.66667 28V12C6.66667 10.1332 6.66667 9.19975 7.02999 8.48672C7.34955 7.8595 7.85949 7.34957 8.48671 7.03C9.19974 6.66669 10.1332 6.66669 12 6.66669H28C29.8668 6.66669 30.8003 6.66669 31.5133 7.03C32.1405 7.34957 32.6505 7.8595 32.97 8.48672C33.3333 9.19975 33.3333 10.1332 33.3333 12V27.489M33.3333 27.489V28C33.3333 29.8669 33.3333 30.8004 32.97 31.5134C32.6505 32.1405 32.1405 32.6505 31.5133 32.97C31.2168 33.1212 30.8822 33.2094 30.4583 33.2609M28.3333 14.9998C28.3333 16.8409 26.841 18.3332 25 18.3332C23.159 18.3332 21.6667 16.8409 21.6667 14.9998C21.6667 13.1589 23.159 11.6665 25 11.6665C26.841 11.6665 28.3333 13.1589 28.3333 14.9998Z" stroke="#314158" stroke-width="3.2" stroke-linecap="round" stroke-linejoin="round"/>
</svg>
